<?xml version="1.0" encoding="utf-8"?>
<!-- Generator: Adobe Illustrator 23.0.1, SVG Export Plug-In . SVG Version: 6.00 Build 0)  -->
<svg version="1.1" id="Layer_1" xmlns="http://www.w3.org/2000/svg" xmlns:xlink="http://www.w3.org/1999/xlink" x="0px" y="0px"
	 viewBox="0 0 512 512" style="enable-background:new 0 0 512 512;" xml:space="preserve">
<style type="text/css">
	.st0{fill:#E58333;}
	.st1{fill:#282830;}
	.st2{opacity:0.8;fill:#E58333;}
	.st3{fill:#18161E;}
</style>
<path class="st0" d="M-27.5,178.5c18.9-9.85,37.6-10.23,75-11c105.81-2.17,127.02,34.82,185,21c23.58-5.62,56.05-33.41,121-89
	c59.06-50.55,70.21-68.75,105-79c38.35-11.3,86.11-7.26,115,11c89.82,56.76,93.38,311.6-29,438c-176.83,182.63-590.64,70.3-642-86
	C-118.51,319.56-90.93,211.55-27.5,178.5z"/>
<path class="st1" d="M-13.5,194.5c18.9-9.85,37.6-10.23,75-11c105.81-2.17,127.02,34.82,185,21c23.58-5.62,56.05-33.41,121-89
	c59.06-50.55,70.21-68.75,105-79c38.35-11.3,86.11-7.26,115,11c89.82,56.76,93.38,311.6-29,438c-176.83,182.63-590.64,70.3-642-86
	C-104.51,335.56-76.93,227.55-13.5,194.5z"/>
<path class="st2" d="M8.5,286.5c18.9-9.85,37.6-10.23,75-11c105.81-2.17,127.02,34.82,185,21c23.58-5.62,56.05-33.41,121-89
	c59.06-50.55,70.21-68.75,105-79c38.35-11.3,86.11-7.26,115,11c89.82,56.76,93.38,311.6-29,438c-176.83,182.63-590.64,70.3-642-86
	C-82.51,427.56-54.93,319.55,8.5,286.5z"/>
<path class="st3" d="M21.5,299.5c18.9-9.85,37.6-10.23,75-11c105.81-2.17,127.02,34.82,185,21c23.58-5.62,56.05-33.41,121-89
	c59.06-50.55,70.21-68.75,105-79c38.35-11.3,86.11-7.26,115,11c89.82,56.76,93.38,311.6-29,438c-176.83,182.63-590.64,70.3-642-86
	C-69.51,440.56-41.93,332.55,21.5,299.5z"/>
<path class="st2" d="M84.85,518.56c18.08-11.28,36.7-13.1,73.93-16.75c105.33-10.33,129.33,24.92,186.07,6.67
	c23.07-7.42,53.31-37.64,113.77-98.07c54.99-54.95,64.69-73.96,98.59-86.86c37.37-14.23,85.29-13.88,115.51,2.1
	c93.94,49.66,117.14,303.47,4.87,438.93C515.38,960.3,94.14,880.23,30.88,728.35C5,666.22,24.17,556.4,84.85,518.56z"/>
<path class="st2" d="M116.85,563.56c18.08-11.28,36.7-13.1,73.93-16.75c105.33-10.33,129.33,24.92,186.07,6.67
	c23.07-7.42,53.31-37.64,113.77-98.07c54.99-54.95,64.69-73.96,98.59-86.86c37.37-14.23,85.29-13.88,115.51,2.1
	c93.94,49.66,117.14,303.47,4.87,438.93C547.38,1005.3,126.14,925.23,62.88,773.35C37,711.22,56.17,601.4,116.85,563.56z"/>
</svg>
