<?xml version="1.0" encoding="utf-8"?>
<!-- Generator: Adobe Illustrator 23.0.1, SVG Export Plug-In . SVG Version: 6.00 Build 0)  -->
<svg version="1.1" id="Layer_1" xmlns="http://www.w3.org/2000/svg" xmlns:xlink="http://www.w3.org/1999/xlink" x="0px" y="0px"
	 viewBox="0 0 179 97" style="enable-background:new 0 0 179 97;" xml:space="preserve">
<style type="text/css">
	.st0{fill:#FFFFFF;}
</style>
<path class="st0" d="M131.5,24.28H49.4c-4.7,0-8.5-3.81-8.5-8.5v-1.03c0-4.7,3.81-8.5,8.5-8.5h82.09c4.7,0,8.5,3.81,8.5,8.5v1.03
	C140,20.47,136.19,24.28,131.5,24.28z"/>
<path class="st0" d="M151.5,59.8H25c-4.7,0-8.5-3.81-8.5-8.5v-1.03c0-4.7,3.81-8.5,8.5-8.5H151.5c4.7,0,8.5,3.81,8.5,8.5v1.03
	C160,55.99,156.19,59.8,151.5,59.8z"/>
<path class="st0" d="M131.5,94.5H49.4c-4.7,0-8.5-3.81-8.5-8.5v-1.03c0-4.7,3.81-8.5,8.5-8.5h82.09c4.7,0,8.5,3.81,8.5,8.5V86
	C140,90.69,136.19,94.5,131.5,94.5z"/>
</svg>
