<?xml version="1.0" encoding="utf-8"?>
<!-- Generator: Adobe Illustrator 23.0.1, SVG Export Plug-In . SVG Version: 6.00 Build 0)  -->
<svg version="1.1" id="Layer_1" xmlns="http://www.w3.org/2000/svg" xmlns:xlink="http://www.w3.org/1999/xlink" x="0px" y="0px"
	 viewBox="0 0 200 200" style="enable-background:new 0 0 200 200;" xml:space="preserve">
<style type="text/css">
	.st0{fill:#FFFFFF;}
	.st1{fill:#252526;}
</style>
<circle class="st0" cx="98.99" cy="100.77" r="93.5"/>
<g>
	<path class="st1" d="M36.6,112.73l10.22-14.92l-8.6-13.27c-0.81-1.29-1.42-2.39-1.82-3.32s-0.61-1.81-0.61-2.66
		c0-0.87,0.39-1.66,1.17-2.35c0.78-0.7,1.73-1.04,2.85-1.04c1.29,0,2.29,0.38,3.01,1.14c0.72,0.76,1.71,2.17,2.97,4.22l6.85,11.09
		l7.32-11.09c0.6-0.93,1.12-1.73,1.54-2.4c0.43-0.66,0.84-1.21,1.23-1.65c0.39-0.44,0.84-0.76,1.32-0.98
		c0.49-0.22,1.05-0.33,1.7-0.33c1.16,0,2.11,0.35,2.85,1.04c0.74,0.7,1.11,1.52,1.11,2.48c0,1.39-0.8,3.28-2.4,5.67l-9,13.46
		L68,112.73c0.87,1.31,1.51,2.39,1.9,3.25c0.39,0.86,0.59,1.68,0.59,2.45c0,0.73-0.18,1.39-0.53,1.99c-0.35,0.6-0.85,1.08-1.5,1.43
		c-0.64,0.35-1.37,0.53-2.18,0.53c-0.87,0-1.61-0.18-2.21-0.54c-0.6-0.36-1.09-0.81-1.46-1.35s-1.07-1.59-2.09-3.15l-8.04-12.65
		l-8.53,13.02c-0.66,1.04-1.14,1.77-1.42,2.18s-0.62,0.82-1.01,1.21c-0.39,0.39-0.86,0.71-1.4,0.93c-0.54,0.23-1.17,0.34-1.9,0.34
		c-1.12,0-2.05-0.34-2.79-1.03c-0.74-0.69-1.11-1.68-1.11-2.99C34.33,116.83,35.09,114.95,36.6,112.73z"/>
	<path class="st1" d="M89.24,102.08H86v14.67c0,1.93-0.43,3.35-1.28,4.27c-0.85,0.91-1.96,1.37-3.33,1.37
		c-1.47,0-2.62-0.48-3.43-1.43c-0.81-0.96-1.21-2.36-1.21-4.2V81.61c0-1.99,0.45-3.44,1.34-4.33c0.89-0.89,2.34-1.34,4.33-1.34
		h15.04c2.08,0,3.85,0.09,5.33,0.26s2.8,0.53,3.99,1.07c1.43,0.6,2.7,1.46,3.8,2.58c1.1,1.12,1.94,2.42,2.51,3.91
		s0.86,3.06,0.86,4.72c0,3.41-0.96,6.13-2.88,8.16c-1.92,2.04-4.83,3.48-8.74,4.33c1.64,0.87,3.21,2.16,4.7,3.86
		c1.5,1.7,2.83,3.51,4,5.44s2.09,3.65,2.74,5.2c0.65,1.55,0.98,2.61,0.98,3.19c0,0.6-0.19,1.2-0.58,1.79s-0.91,1.06-1.57,1.4
		c-0.67,0.34-1.43,0.51-2.3,0.51c-1.04,0-1.91-0.24-2.62-0.73s-1.31-1.11-1.82-1.85c-0.51-0.75-1.2-1.85-2.07-3.3l-3.71-6.17
		c-1.33-2.26-2.52-3.99-3.57-5.17c-1.05-1.18-2.11-1.99-3.19-2.43C92.24,102.29,90.88,102.08,89.24,102.08z M94.54,82.89H86v12.55
		h8.29c2.22,0,4.09-0.19,5.61-0.58c1.52-0.38,2.67-1.04,3.47-1.96c0.8-0.92,1.2-2.2,1.2-3.82c0-1.27-0.32-2.38-0.97-3.35
		s-1.54-1.69-2.68-2.17C99.84,83.12,97.71,82.89,94.54,82.89z"/>
	<path class="st1" d="M140.41,103.82h-8.47v12.93c0,1.85-0.44,3.25-1.31,4.2s-1.97,1.43-3.3,1.43c-1.39,0-2.51-0.47-3.36-1.42
		c-0.85-0.94-1.28-2.33-1.28-4.16v-35.2c0-2.03,0.47-3.49,1.4-4.36s2.42-1.31,4.45-1.31h11.87c3.51,0,6.21,0.27,8.1,0.81
		c1.87,0.52,3.48,1.38,4.84,2.58c1.36,1.2,2.39,2.68,3.1,4.42c0.71,1.74,1.06,3.71,1.06,5.89c0,4.65-1.43,8.18-4.3,10.57
		S146.08,103.82,140.41,103.82z M138.17,82.89h-6.23v13.95h6.23c2.18,0,4-0.23,5.47-0.68s2.58-1.2,3.35-2.24
		c0.77-1.04,1.15-2.4,1.15-4.08c0-2.01-0.59-3.65-1.78-4.92C145.03,83.56,142.3,82.89,138.17,82.89z"/>
</g>
<g>
</g>
<g>
</g>
<g>
</g>
<g>
</g>
<g>
</g>
<g>
</g>
<g>
</g>
<g>
</g>
<g>
</g>
<g>
</g>
<g>
</g>
</svg>
